<svg width="326" height="314" viewBox="0 0 326 314" fill="none" xmlns="http://www.w3.org/2000/svg">
<path d="M136.674 295.976L105.84 246.385C100.747 238.193 92.6547 232.314 83.2892 230.001L26.5973 216.001C4.29515 210.494 -4.4789 183.49 10.3268 165.925L47.9626 121.277C54.1801 113.901 57.2709 104.388 56.5764 94.7662L52.3722 36.5229C50.7183 13.6104 73.689 -3.07883 94.9691 5.57446L149.063 27.5711C157.999 31.2049 168.001 31.2049 176.937 27.5711L231.031 5.57444C252.311 -3.07885 275.282 13.6104 273.628 36.5229L269.424 94.7662C268.729 104.388 271.82 113.901 278.037 121.277L315.673 165.925C330.479 183.49 321.705 210.494 299.403 216.001L242.711 230.001C233.345 232.314 225.253 238.193 220.16 246.385L189.326 295.976C177.197 315.485 148.803 315.485 136.674 295.976Z" fill="#818CF8" stroke="black" stroke-width="6"/>
</svg>
