<svg width="400" height="397" viewBox="0 0 400 397" fill="none" xmlns="http://www.w3.org/2000/svg">
<path d="M229.536 54.8131L269.915 19.5285L275.984 72.807L276.415 76.5862L279.99 75.287L330.388 56.9716L316.8 108.845L315.837 112.524L319.639 112.604L373.251 113.731L341.842 157.193L339.614 160.276L343.132 161.725L392.715 182.142L347.728 211.323L344.536 213.393L347.293 216.014L386.153 252.965L333.661 263.924L329.938 264.701L331.561 268.141L354.449 316.634L301.543 307.891L297.791 307.271L298.062 311.065L301.886 364.552L255.712 337.288L252.436 335.354L251.319 338.989L235.563 390.245L202.356 348.142L200 345.156L197.644 348.142L164.437 390.245L148.681 338.989L147.564 335.354L144.288 337.288L98.1139 364.552L101.938 311.065L102.209 307.271L98.4565 307.891L45.5511 316.634L68.4385 268.141L70.062 264.701L66.3386 263.924L13.8474 252.965L52.7071 216.014L55.4636 213.393L52.2724 211.323L7.28476 182.142L56.8684 161.725L60.3856 160.276L58.1577 157.193L26.7493 113.731L80.3605 112.604L84.1633 112.524L83.1995 108.845L69.6124 56.9716L120.01 75.287L123.585 76.5862L124.016 72.807L130.085 19.5285L170.464 54.8131L173.328 57.3159L175.094 53.9474L200 6.45914L224.906 53.9474L226.672 57.3159L229.536 54.8131Z" fill="#FB923C" stroke="black" stroke-width="6"/>
</svg>
